<svg width="96" height="64" viewBox="0 0 96 64" fill="none" xmlns="http://www.w3.org/2000/svg">
<rect width="96" height="64" fill="#2196F3"/>
<path d="M13.5016 49.8809C13.2125 50.2949 12.8082 50.6055 12.2887 50.8125C11.773 51.0156 11.1715 51.1172 10.484 51.1172C9.78867 51.1172 9.17149 50.9551 8.63242 50.6309C8.09336 50.3027 7.67539 49.8379 7.37852 49.2363C7.08555 48.6348 6.93516 47.9375 6.92735 47.1445V46.4004C6.92735 45.1152 7.22617 44.1191 7.82383 43.4121C8.42539 42.7051 9.26914 42.3516 10.3551 42.3516C11.2457 42.3516 11.9625 42.5801 12.5055 43.0371C13.0484 43.4902 13.3805 44.1348 13.5016 44.9707H12.3766C12.1656 43.8418 11.4938 43.2773 10.3609 43.2773C9.60703 43.2773 9.03477 43.543 8.64414 44.0742C8.25742 44.6016 8.06211 45.3672 8.0582 46.3711V47.0684C8.0582 48.0254 8.27695 48.7871 8.71445 49.3535C9.15195 49.916 9.74375 50.1973 10.4898 50.1973C10.9117 50.1973 11.2809 50.1504 11.5973 50.0566C11.9137 49.9629 12.1754 49.8047 12.3824 49.582V47.666H10.4078V46.752H13.5016V49.8809ZM19.5266 51C19.4641 50.875 19.4133 50.6523 19.3742 50.332C18.8703 50.8555 18.2688 51.1172 17.5695 51.1172C16.9445 51.1172 16.4309 50.9414 16.0285 50.5898C15.6301 50.2344 15.4309 49.7852 15.4309 49.2422C15.4309 48.582 15.6809 48.0703 16.1809 47.707C16.6848 47.3398 17.3918 47.1562 18.302 47.1562H19.3566V46.6582C19.3566 46.2793 19.2434 45.9785 19.0168 45.7559C18.7902 45.5293 18.4563 45.416 18.0148 45.416C17.6281 45.416 17.3039 45.5137 17.0422 45.709C16.7805 45.9043 16.6496 46.1406 16.6496 46.418H15.5598C15.5598 46.1016 15.6711 45.7969 15.8938 45.5039C16.1203 45.207 16.425 44.9727 16.8078 44.8008C17.1945 44.6289 17.6184 44.543 18.0793 44.543C18.8098 44.543 19.382 44.7266 19.7961 45.0938C20.2102 45.457 20.425 45.959 20.4406 46.5996V49.5176C20.4406 50.0996 20.5148 50.5625 20.6633 50.9062V51H19.5266ZM17.7277 50.1738C18.0676 50.1738 18.3898 50.0859 18.6945 49.9102C18.9992 49.7344 19.2199 49.5059 19.3566 49.2246V47.9238H18.507C17.1789 47.9238 16.5148 48.3125 16.5148 49.0898C16.5148 49.4297 16.6281 49.6953 16.8547 49.8867C17.0813 50.0781 17.3723 50.1738 17.7277 50.1738ZM23.5594 44.6602L23.5887 45.3633C24.0535 44.8164 24.6805 44.543 25.4695 44.543C26.3563 44.543 26.9598 44.8828 27.2801 45.5625C27.491 45.2578 27.7645 45.0117 28.1004 44.8242C28.4402 44.6367 28.8406 44.543 29.3016 44.543C30.6922 44.543 31.3992 45.2793 31.4227 46.752V51H30.3387V46.8164C30.3387 46.3633 30.2352 46.0254 30.0281 45.8027C29.8211 45.5762 29.4734 45.4629 28.9852 45.4629C28.5828 45.4629 28.2488 45.584 27.9832 45.8262C27.7176 46.0645 27.5633 46.3867 27.5203 46.793V51H26.4305V46.8457C26.4305 45.9238 25.9793 45.4629 25.077 45.4629C24.366 45.4629 23.8797 45.7656 23.618 46.3711V51H22.534V44.6602H23.5594ZM36.0941 51.1172C35.2348 51.1172 34.5355 50.8359 33.9965 50.2734C33.4574 49.707 33.1879 48.9512 33.1879 48.0059V47.8066C33.1879 47.1777 33.307 46.6172 33.5453 46.125C33.7875 45.6289 34.1234 45.2422 34.5531 44.9648C34.9867 44.6836 35.4555 44.543 35.9594 44.543C36.7836 44.543 37.4242 44.8145 37.8813 45.3574C38.3383 45.9004 38.5668 46.6777 38.5668 47.6895V48.1406H34.2719C34.2875 48.7656 34.4691 49.2715 34.8168 49.6582C35.1684 50.041 35.6137 50.2324 36.1527 50.2324C36.5355 50.2324 36.8598 50.1543 37.1254 49.998C37.391 49.8418 37.6234 49.6348 37.8227 49.377L38.4848 49.8926C37.9535 50.709 37.1566 51.1172 36.0941 51.1172ZM35.9594 45.4336C35.5219 45.4336 35.1547 45.5938 34.8578 45.9141C34.5609 46.2305 34.3773 46.6758 34.307 47.25H37.4828V47.168C37.4516 46.6172 37.3031 46.1914 37.0375 45.8906C36.7719 45.5859 36.4125 45.4336 35.9594 45.4336ZM46.2867 47.1973C45.3219 46.9199 44.6188 46.5801 44.1773 46.1777C43.7398 45.7715 43.5211 45.2715 43.5211 44.6777C43.5211 44.0059 43.7887 43.4512 44.3238 43.0137C44.8629 42.5723 45.5621 42.3516 46.4215 42.3516C47.0074 42.3516 47.5289 42.4648 47.9859 42.6914C48.4469 42.918 48.8023 43.2305 49.0523 43.6289C49.3063 44.0273 49.4332 44.4629 49.4332 44.9355H48.3023C48.3023 44.4199 48.1383 44.0156 47.8102 43.7227C47.482 43.4258 47.0191 43.2773 46.4215 43.2773C45.8668 43.2773 45.4332 43.4004 45.1207 43.6465C44.8121 43.8887 44.6578 44.2266 44.6578 44.6602C44.6578 45.0078 44.8043 45.3027 45.0973 45.5449C45.3941 45.7832 45.8961 46.002 46.6031 46.2012C47.3141 46.4004 47.8688 46.6211 48.2672 46.8633C48.6695 47.1016 48.9664 47.3809 49.1578 47.7012C49.3531 48.0215 49.4508 48.3984 49.4508 48.832C49.4508 49.5234 49.1813 50.0781 48.6422 50.4961C48.1031 50.9102 47.3824 51.1172 46.4801 51.1172C45.8941 51.1172 45.3473 51.0059 44.8395 50.7832C44.3316 50.5566 43.9391 50.248 43.6617 49.8574C43.3883 49.4668 43.2516 49.0234 43.2516 48.5273H44.3824C44.3824 49.043 44.5719 49.4512 44.9508 49.752C45.3336 50.0488 45.8434 50.1973 46.4801 50.1973C47.0738 50.1973 47.5289 50.0762 47.8453 49.834C48.1617 49.5918 48.3199 49.2617 48.3199 48.8438C48.3199 48.4258 48.1734 48.1035 47.8805 47.877C47.5875 47.6465 47.0563 47.4199 46.2867 47.1973ZM53.759 51.1172C52.8996 51.1172 52.2004 50.8359 51.6613 50.2734C51.1223 49.707 50.8527 48.9512 50.8527 48.0059V47.8066C50.8527 47.1777 50.9719 46.6172 51.2102 46.125C51.4523 45.6289 51.7883 45.2422 52.218 44.9648C52.6516 44.6836 53.1203 44.543 53.6242 44.543C54.4484 44.543 55.0891 44.8145 55.5461 45.3574C56.0031 45.9004 56.2316 46.6777 56.2316 47.6895V48.1406H51.9367C51.9523 48.7656 52.134 49.2715 52.4816 49.6582C52.8332 50.041 53.2785 50.2324 53.8176 50.2324C54.2004 50.2324 54.5246 50.1543 54.7902 49.998C55.0559 49.8418 55.2883 49.6348 55.4875 49.377L56.1496 49.8926C55.6184 50.709 54.8215 51.1172 53.759 51.1172ZM53.6242 45.4336C53.1867 45.4336 52.8195 45.5938 52.5227 45.9141C52.2258 46.2305 52.0422 46.6758 51.9719 47.25H55.1477V47.168C55.1164 46.6172 54.968 46.1914 54.7023 45.8906C54.4367 45.5859 54.0773 45.4336 53.6242 45.4336ZM59.3621 43.125V44.6602H60.5457V45.498H59.3621V49.4297C59.3621 49.6836 59.4148 49.875 59.5203 50.0039C59.6258 50.1289 59.8055 50.1914 60.0594 50.1914C60.1844 50.1914 60.3563 50.168 60.575 50.1211V51C60.2898 51.0781 60.0125 51.1172 59.743 51.1172C59.2586 51.1172 58.8934 50.9707 58.6473 50.6777C58.4012 50.3848 58.2781 49.9688 58.2781 49.4297V45.498H57.1238V44.6602H58.2781V43.125H59.3621ZM63.6879 43.125V44.6602H64.8715V45.498H63.6879V49.4297C63.6879 49.6836 63.7406 49.875 63.8461 50.0039C63.9516 50.1289 64.1313 50.1914 64.3852 50.1914C64.5102 50.1914 64.682 50.168 64.9008 50.1211V51C64.6156 51.0781 64.3383 51.1172 64.0688 51.1172C63.5844 51.1172 63.2191 50.9707 62.973 50.6777C62.727 50.3848 62.6039 49.9688 62.6039 49.4297V45.498H61.4496V44.6602H62.6039V43.125H63.6879ZM67.7207 51H66.6367V44.6602H67.7207V51ZM66.5488 42.9785C66.5488 42.8027 66.6016 42.6543 66.707 42.5332C66.8164 42.4121 66.9766 42.3516 67.1875 42.3516C67.3984 42.3516 67.5586 42.4121 67.668 42.5332C67.7773 42.6543 67.832 42.8027 67.832 42.9785C67.832 43.1543 67.7773 43.3008 67.668 43.418C67.5586 43.5352 67.3984 43.5938 67.1875 43.5938C66.9766 43.5938 66.8164 43.5352 66.707 43.418C66.6016 43.3008 66.5488 43.1543 66.5488 42.9785ZM70.8863 44.6602L70.9215 45.457C71.4059 44.8477 72.0387 44.543 72.8199 44.543C74.1598 44.543 74.8355 45.2988 74.8473 46.8105V51H73.7633V46.8047C73.7594 46.3477 73.6539 46.0098 73.4469 45.791C73.2438 45.5723 72.9254 45.4629 72.4918 45.4629C72.1402 45.4629 71.8316 45.5566 71.566 45.7441C71.3004 45.9316 71.0934 46.1777 70.9449 46.4824V51H69.8609V44.6602H70.8863ZM76.6242 47.7773C76.6242 46.7891 76.8527 46.0039 77.3098 45.4219C77.7668 44.8359 78.3723 44.543 79.1262 44.543C79.8996 44.543 80.5031 44.8164 80.9367 45.3633L80.9895 44.6602H81.9797V50.8477C81.9797 51.668 81.7355 52.3145 81.2473 52.7871C80.7629 53.2598 80.1105 53.4961 79.2902 53.4961C78.8332 53.4961 78.3859 53.3984 77.9484 53.2031C77.5109 53.0078 77.177 52.7402 76.9465 52.4004L77.509 51.75C77.9738 52.3242 78.5422 52.6113 79.2141 52.6113C79.7414 52.6113 80.1516 52.4629 80.4445 52.166C80.7414 51.8691 80.8898 51.4512 80.8898 50.9121V50.3672C80.4563 50.8672 79.8645 51.1172 79.1145 51.1172C78.3723 51.1172 77.7707 50.8184 77.3098 50.2207C76.8527 49.623 76.6242 48.8086 76.6242 47.7773ZM77.7141 47.9004C77.7141 48.6152 77.8605 49.1777 78.1535 49.5879C78.4465 49.9941 78.8566 50.1973 79.384 50.1973C80.0676 50.1973 80.5695 49.8867 80.8898 49.2656V46.3711C80.5578 45.7656 80.0598 45.4629 79.3957 45.4629C78.8684 45.4629 78.4563 45.668 78.1594 46.0781C77.8625 46.4883 77.7141 47.0957 77.7141 47.9004ZM87.7117 49.3184C87.7117 49.0254 87.6004 48.7988 87.3777 48.6387C87.159 48.4746 86.7742 48.334 86.2234 48.2168C85.6766 48.0996 85.241 47.959 84.9168 47.7949C84.5965 47.6309 84.3582 47.4355 84.202 47.209C84.0496 46.9824 83.9734 46.7129 83.9734 46.4004C83.9734 45.8809 84.1922 45.4414 84.6297 45.082C85.0711 44.7227 85.6336 44.543 86.3172 44.543C87.0359 44.543 87.618 44.7285 88.0633 45.0996C88.5125 45.4707 88.7371 45.9453 88.7371 46.5234H87.6473C87.6473 46.2266 87.5203 45.9707 87.2664 45.7559C87.0164 45.541 86.7 45.4336 86.3172 45.4336C85.9227 45.4336 85.6141 45.5195 85.3914 45.6914C85.1688 45.8633 85.0574 46.0879 85.0574 46.3652C85.0574 46.627 85.1609 46.8242 85.368 46.957C85.575 47.0898 85.9481 47.2168 86.4871 47.3379C87.0301 47.459 87.4695 47.6035 87.8055 47.7715C88.1414 47.9395 88.3895 48.1426 88.5496 48.3809C88.7137 48.6152 88.7957 48.9023 88.7957 49.2422C88.7957 49.8086 88.5691 50.2637 88.116 50.6074C87.6629 50.9473 87.075 51.1172 86.3523 51.1172C85.8445 51.1172 85.3953 51.0273 85.0047 50.8477C84.6141 50.668 84.3074 50.418 84.0848 50.0977C83.866 49.7734 83.7566 49.4238 83.7566 49.0488H84.8406C84.8602 49.4121 85.0047 49.7012 85.2742 49.916C85.5477 50.127 85.907 50.2324 86.3523 50.2324C86.7625 50.2324 87.0906 50.1504 87.3367 49.9863C87.5867 49.8184 87.7117 49.5957 87.7117 49.3184Z" fill="white" fill-opacity="0.7"/>
<path d="M47.99 11C42.47 11 38 15.48 38 21C38 26.52 42.47 31 47.99 31C53.52 31 58 26.52 58 21C58 15.48 53.52 11 47.99 11ZM52.23 27L48 24.45L43.77 27L44.89 22.19L41.16 18.96L46.08 18.54L48 14L49.92 18.53L54.84 18.95L51.11 22.18L52.23 27Z" fill="white" fill-opacity="0.7"/>
<circle cx="48" cy="21" r="10" fill="white"/>
<path fill-rule="evenodd" clip-rule="evenodd" d="M52.7487 21.624C52.7727 21.424 52.7887 21.216 52.7887 21C52.7887 20.784 52.7727 20.576 52.7407 20.376L54.0927 19.32C54.2127 19.224 54.2447 19.048 54.1727 18.912L52.8927 16.696C52.8127 16.552 52.6447 16.504 52.5007 16.552L50.9087 17.192C50.5727 16.936 50.2207 16.728 49.8287 16.568L49.5887 14.872C49.5647 14.712 49.4287 14.6 49.2687 14.6H46.7087C46.5487 14.6 46.4207 14.712 46.3967 14.872L46.1567 16.568C45.7647 16.728 45.4047 16.944 45.0767 17.192L43.4847 16.552C43.3407 16.496 43.1727 16.552 43.0927 16.696L41.8127 18.912C41.7327 19.056 41.7647 19.224 41.8927 19.32L43.2447 20.376C43.2127 20.576 43.1887 20.792 43.1887 21C43.1887 21.208 43.2047 21.424 43.2367 21.624L41.8847 22.68C41.7647 22.776 41.7327 22.952 41.8047 23.088L43.0847 25.304C43.1647 25.448 43.3327 25.496 43.4767 25.448L45.0687 24.808C45.4047 25.064 45.7567 25.272 46.1487 25.432L46.3887 27.128C46.4207 27.288 46.5487 27.4 46.7087 27.4H49.2687C49.4287 27.4 49.5647 27.288 49.5807 27.128L49.8207 25.432C50.2127 25.272 50.5727 25.056 50.9007 24.808L52.4927 25.448C52.6367 25.504 52.8047 25.448 52.8847 25.304L54.1647 23.088C54.2447 22.944 54.2127 22.776 54.0847 22.68L52.7487 21.624ZM47.9887 23.4C46.6687 23.4 45.5887 22.32 45.5887 21C45.5887 19.68 46.6687 18.6 47.9887 18.6C49.3087 18.6 50.3887 19.68 50.3887 21C50.3887 22.32 49.3087 23.4 47.9887 23.4Z" fill="#2F80ED"/>
</svg>
